<svg data-v-fde0c5aa="" xmlns="http://www.w3.org/2000/svg" viewBox="0 0 300 300" class="iconAboveSlogan"><!----><defs data-v-fde0c5aa=""><linearGradient data-v-fde0c5aa="" gradientTransform="rotate(25)" id="c62ca3c6-4f5f-433e-b409-e65e120cec6c" x1="0%" y1="0%" x2="100%" y2="0%"><stop data-v-fde0c5aa="" offset="0%" stop-color="#30092A" stop-opacity="1"></stop><stop data-v-fde0c5aa="" offset="100%" stop-color="#CB3C61" stop-opacity="1"></stop></linearGradient></defs><rect data-v-fde0c5aa="" fill="url(#c62ca3c6-4f5f-433e-b409-e65e120cec6c)" x="0" y="0" width="300px" height="300px" class="logo-background-square"></rect><defs data-v-fde0c5aa=""><!----></defs><g data-v-fde0c5aa="" id="ee68894d-b221-4343-97f1-22fb547f5668" fill="#ffffff" transform="matrix(2.028555853276092,0,0,2.028555853276092,18.80315197885675,148.9867866956283)"><path d="M4.84 4.77L4.84 4.77Q3.64 4.77 2.84 5.77Q2.04 6.76 2.04 8.34L2.04 8.34Q2.04 10.19 2.88 11.24Q3.72 12.29 4.90 12.29L4.90 12.29Q5.60 12.29 6.29 11.81Q6.97 11.33 7.17 10.78L7.17 10.78L7.50 10.95Q7.18 11.72 6.49 12.24Q5.80 12.77 4.62 12.77L4.62 12.77Q2.76 12.77 1.67 11.56Q0.59 10.35 0.59 8.65L0.59 8.65Q0.59 6.69 1.84 5.50Q3.09 4.30 4.83 4.30L4.83 4.30Q5.24 4.30 5.77 4.51Q6.30 4.72 6.38 4.72L6.38 4.72Q6.55 4.72 6.55 4.44L6.55 4.44L6.87 4.44L7.01 6.22L6.71 6.22Q6.61 5.59 6.15 5.18Q5.70 4.77 4.84 4.77ZM9.76 9.16L9.76 9.16Q9.76 10.75 10.37 11.55Q10.98 12.35 11.93 12.35L11.93 12.35Q12.68 12.35 13.15 11.67Q13.61 10.99 13.61 9.93L13.61 9.93Q13.61 6.76 11.41 6.76L11.41 6.76Q10.67 6.76 10.21 7.47Q9.76 8.18 9.76 9.16ZM11.75 12.77L11.75 12.77Q10.18 12.77 9.30 11.85Q8.41 10.93 8.41 9.44L8.41 9.44Q8.41 8.08 9.21 7.20Q10.01 6.33 11.65 6.33L11.65 6.33Q13.30 6.33 14.13 7.20Q14.95 8.08 14.95 9.60L14.95 9.60Q14.95 10.96 14.16 11.87Q13.37 12.77 11.75 12.77ZM18.96 12.63L15.93 12.63L15.93 12.33Q16.69 12.33 16.81 12.05L16.81 12.05L16.81 7.32Q15.95 7.25 15.93 7.25L15.93 7.25L15.93 6.93Q16.20 6.93 16.98 6.63Q17.75 6.33 18.07 6.33L18.07 6.33L18.07 6.96Q18.82 6.33 19.63 6.33L19.63 6.33Q21.31 6.33 21.78 7.14L21.78 7.14Q22.57 6.33 23.53 6.33L23.53 6.33Q25.89 6.33 25.89 7.92L25.89 7.92L25.89 12.05Q26.01 12.33 26.77 12.33L26.77 12.33L26.77 12.63L23.74 12.63L23.74 12.33Q24.50 12.33 24.63 12.05L24.63 12.05L24.63 8.44Q24.63 7.53 24.36 7.17Q24.09 6.80 23.45 6.80L23.45 6.80Q22.62 6.80 21.92 7.48L21.92 7.48Q21.98 7.66 21.98 7.92L21.98 7.92L21.98 12.05Q22.11 12.33 22.86 12.33L22.86 12.33L22.86 12.63L19.84 12.63L19.84 12.33Q20.59 12.33 20.72 12.05L20.72 12.05L20.72 8.44Q20.72 7.53 20.45 7.17Q20.19 6.80 19.54 6.80L19.54 6.80Q18.75 6.80 18.07 7.42L18.07 7.42L18.07 12.05Q18.20 12.33 18.96 12.33L18.96 12.33L18.96 12.63ZM30.48 12.63L27.45 12.63L27.45 12.33Q28.21 12.33 28.34 12.05L28.34 12.05L28.34 7.32Q27.47 7.25 27.45 7.25L27.45 7.25L27.45 6.93Q27.72 6.93 28.50 6.63Q29.27 6.33 29.60 6.33L29.60 6.33L29.60 6.96Q30.34 6.33 31.15 6.33L31.15 6.33Q32.83 6.33 33.31 7.14L33.31 7.14Q34.09 6.33 35.06 6.33L35.06 6.33Q37.41 6.33 37.41 7.92L37.41 7.92L37.41 12.05Q37.53 12.33 38.29 12.33L38.29 12.33L38.29 12.63L35.27 12.63L35.27 12.33Q36.02 12.33 36.15 12.05L36.15 12.05L36.15 8.44Q36.15 7.53 35.88 7.17Q35.62 6.80 34.97 6.80L34.97 6.80Q34.15 6.80 33.45 7.48L33.45 7.48Q33.50 7.66 33.50 7.92L33.50 7.92L33.50 12.05Q33.63 12.33 34.38 12.33L34.38 12.33L34.38 12.63L31.36 12.63L31.36 12.33Q32.12 12.33 32.24 12.05L32.24 12.05L32.24 8.44Q32.24 7.53 31.98 7.17Q31.71 6.80 31.07 6.80L31.07 6.80Q30.27 6.80 29.60 7.42L29.60 7.42L29.60 12.05Q29.72 12.33 30.48 12.33L30.48 12.33L30.48 12.63ZM40.11 7.50L40.11 7.50Q40.31 7.50 40.45 7.64Q40.60 7.78 40.60 8.08L40.60 8.08Q40.60 8.32 40.41 8.44Q40.22 8.57 39.97 8.57L39.97 8.57Q39.70 8.57 39.54 8.38Q39.37 8.19 39.37 7.87L39.37 7.87Q39.37 7.14 39.97 6.73Q40.57 6.33 41.68 6.33L41.68 6.33Q42.98 6.33 43.59 6.97Q44.20 7.62 44.20 8.68L44.20 8.68L44.20 11.45Q44.20 11.90 44.34 12.11Q44.49 12.32 44.70 12.32L44.70 12.32Q44.88 12.32 45.03 12.22Q45.18 12.12 45.18 11.98L45.18 11.98L45.43 11.98Q45.43 12.38 45.14 12.56Q44.86 12.74 44.14 12.74L44.14 12.74Q43.44 12.74 43.15 12.17L43.15 12.17Q42.32 12.77 41.09 12.77L41.09 12.77Q38.99 12.77 38.99 11.06L38.99 11.06Q38.99 10.70 39.25 10.40Q39.51 10.11 40.00 9.91Q40.49 9.72 40.92 9.60Q41.36 9.48 42.01 9.33Q42.66 9.18 42.94 9.10L42.94 9.10Q42.94 7.92 42.63 7.38Q42.32 6.83 41.54 6.83L41.54 6.83Q40.28 6.83 40.11 7.50ZM43.02 11.82L43.02 11.82Q42.94 11.51 42.94 11.06L42.94 11.06L42.94 9.41Q42.78 9.46 42.41 9.56Q42.04 9.66 41.81 9.73Q41.58 9.80 41.26 9.94Q40.94 10.08 40.75 10.22Q40.57 10.36 40.43 10.59Q40.29 10.82 40.29 11.09L40.29 11.09Q40.29 11.76 40.55 12.03Q40.81 12.29 41.33 12.29L41.33 12.29Q42.25 12.29 43.02 11.82ZM48.76 12.63L45.74 12.63L45.74 12.33Q46.49 12.33 46.62 12.05L46.62 12.05L46.62 7.32Q45.75 7.25 45.74 7.25L45.74 7.25L45.74 6.93Q46.00 6.93 46.78 6.63Q47.56 6.33 47.88 6.33L47.88 6.33L47.88 6.97Q48.64 6.33 49.55 6.33L49.55 6.33Q50.85 6.33 51.43 6.81Q52.01 7.29 52.01 8.32L52.01 8.32L52.01 12.05Q52.14 12.33 52.89 12.33L52.89 12.33L52.89 12.63L49.87 12.63L49.87 12.33Q50.62 12.33 50.75 12.05L50.75 12.05L50.75 8.22Q50.75 6.80 49.46 6.80L49.46 6.80Q48.58 6.80 47.88 7.42L47.88 7.42L47.88 12.05Q48.01 12.33 48.76 12.33L48.76 12.33L48.76 12.63ZM58.21 6.61L58.21 6.61L58.21 4.80Q58.21 4.80 57.33 4.73L57.33 4.73L57.33 4.41Q57.60 4.41 58.37 4.11Q59.15 3.81 59.47 3.81L59.47 3.81L59.47 11.77L60.35 11.84L60.35 12.17Q60.09 12.17 59.31 12.47Q58.53 12.77 58.21 12.77L58.21 12.77L58.21 12.31Q57.54 12.77 56.53 12.77L56.53 12.77Q56.07 12.77 55.62 12.61Q55.16 12.45 54.71 12.10Q54.25 11.76 53.96 11.09Q53.68 10.42 53.68 9.52L53.68 9.52Q53.68 7.95 54.55 7.11Q55.43 6.27 56.84 6.27L56.84 6.27Q57.64 6.27 58.21 6.61ZM58.21 11.84L58.21 7.04Q57.71 6.75 56.92 6.75L56.92 6.75Q56.15 6.75 55.58 7.49Q55.01 8.23 55.01 9.52L55.01 9.52Q55.01 10.37 55.50 11.33Q56 12.29 56.67 12.29L56.67 12.29Q57.60 12.29 58.21 11.84L58.21 11.84ZM65.49 4.77L65.49 4.77Q64.29 4.77 63.49 5.77Q62.69 6.76 62.69 8.34L62.69 8.34Q62.69 10.19 63.53 11.24Q64.37 12.29 65.55 12.29L65.55 12.29Q66.25 12.29 66.93 11.81Q67.62 11.33 67.82 10.78L67.82 10.78L68.15 10.95Q67.83 11.72 67.14 12.24Q66.44 12.77 65.27 12.77L65.27 12.77Q63.41 12.77 62.32 11.56Q61.24 10.35 61.24 8.65L61.24 8.65Q61.24 6.69 62.49 5.50Q63.74 4.30 65.48 4.30L65.48 4.30Q65.88 4.30 66.42 4.51Q66.95 4.72 67.03 4.72L67.03 4.72Q67.20 4.72 67.20 4.44L67.20 4.44L67.52 4.44L67.66 6.22L67.35 6.22Q67.26 5.59 66.80 5.18Q66.35 4.77 65.49 4.77ZM70.41 9.16L70.41 9.16Q70.41 10.75 71.02 11.55Q71.62 12.35 72.58 12.35L72.58 12.35Q73.33 12.35 73.79 11.67Q74.26 10.99 74.26 9.93L74.26 9.93Q74.26 6.76 72.06 6.76L72.06 6.76Q71.32 6.76 70.86 7.47Q70.41 8.18 70.41 9.16ZM72.39 12.77L72.39 12.77Q70.83 12.77 69.94 11.85Q69.06 10.93 69.06 9.44L69.06 9.44Q69.06 8.08 69.86 7.20Q70.66 6.33 72.30 6.33L72.30 6.33Q73.95 6.33 74.77 7.20Q75.60 8.08 75.60 9.60L75.60 9.60Q75.60 10.96 74.81 11.87Q74.02 12.77 72.39 12.77ZM79.60 12.63L76.58 12.63L76.58 12.33Q77.34 12.33 77.46 12.05L77.46 12.05L77.46 7.32Q76.59 7.25 76.58 7.25L76.58 7.25L76.58 6.93Q76.85 6.93 77.62 6.63Q78.40 6.33 78.72 6.33L78.72 6.33L78.72 6.96Q79.46 6.33 80.28 6.33L80.28 6.33Q81.96 6.33 82.43 7.14L82.43 7.14Q83.22 6.33 84.18 6.33L84.18 6.33Q86.53 6.33 86.53 7.92L86.53 7.92L86.53 12.05Q86.66 12.33 87.42 12.33L87.42 12.33L87.42 12.63L84.39 12.63L84.39 12.33Q85.15 12.33 85.27 12.05L85.27 12.05L85.27 8.44Q85.27 7.53 85.01 7.17Q84.74 6.80 84.10 6.80L84.10 6.80Q83.27 6.80 82.57 7.48L82.57 7.48Q82.63 7.66 82.63 7.92L82.63 7.92L82.63 12.05Q82.75 12.33 83.51 12.33L83.51 12.33L83.51 12.63L80.49 12.63L80.49 12.33Q81.24 12.33 81.37 12.05L81.37 12.05L81.37 8.44Q81.37 7.53 81.10 7.17Q80.84 6.80 80.19 6.80L80.19 6.80Q79.39 6.80 78.72 7.42L78.72 7.42L78.72 12.05Q78.85 12.33 79.60 12.33L79.60 12.33L79.60 12.63ZM91 15.32L87.98 15.32L87.98 15.02Q88.73 15.02 88.86 14.74L88.86 14.74L88.86 7.32Q88.86 7.32 87.98 7.25L87.98 7.25L87.98 6.93Q88.24 6.93 89.02 6.63Q89.80 6.33 90.12 6.33L90.12 6.33L90.12 6.79Q90.79 6.33 91.80 6.33L91.80 6.33Q92.26 6.33 92.72 6.49Q93.17 6.65 93.63 6.99Q94.08 7.34 94.37 8.01Q94.65 8.68 94.65 9.58L94.65 9.58Q94.65 11.13 93.79 11.95Q92.92 12.77 91.49 12.77L91.49 12.77Q90.68 12.77 90.12 12.46L90.12 12.46L90.12 14.74Q90.24 15.02 91 15.02L91 15.02L91 15.32ZM90.12 7.25L90.12 12.01Q90.65 12.29 91.41 12.29L91.41 12.29Q92.18 12.29 92.75 11.58Q93.32 10.86 93.32 9.58L93.32 9.58Q93.32 8.72 92.83 7.76Q92.33 6.80 91.66 6.80L91.66 6.80Q90.69 6.80 90.12 7.25L90.12 7.25ZM96.77 7.50L96.77 7.50Q96.96 7.50 97.11 7.64Q97.26 7.78 97.26 8.08L97.26 8.08Q97.26 8.32 97.07 8.44Q96.88 8.57 96.63 8.57L96.63 8.57Q96.36 8.57 96.19 8.38Q96.03 8.19 96.03 7.87L96.03 7.87Q96.03 7.14 96.63 6.73Q97.23 6.33 98.34 6.33L98.34 6.33Q99.64 6.33 100.25 6.97Q100.86 7.62 100.86 8.68L100.86 8.68L100.86 11.45Q100.86 11.90 101.00 12.11Q101.15 12.32 101.36 12.32L101.36 12.32Q101.54 12.32 101.69 12.22Q101.84 12.12 101.84 11.98L101.84 11.98L102.09 11.98Q102.09 12.38 101.80 12.56Q101.51 12.74 100.80 12.74L100.80 12.74Q100.10 12.74 99.81 12.17L99.81 12.17Q98.98 12.77 97.75 12.77L97.75 12.77Q95.65 12.77 95.65 11.06L95.65 11.06Q95.65 10.70 95.91 10.40Q96.17 10.11 96.66 9.91Q97.15 9.72 97.58 9.60Q98.01 9.48 98.67 9.33Q99.32 9.18 99.60 9.10L99.60 9.10Q99.60 7.92 99.29 7.38Q98.98 6.83 98.20 6.83L98.20 6.83Q96.94 6.83 96.77 7.50ZM99.68 11.82L99.68 11.82Q99.60 11.51 99.60 11.06L99.60 11.06L99.60 9.41Q99.44 9.46 99.07 9.56Q98.70 9.66 98.47 9.73Q98.24 9.80 97.92 9.94Q97.59 10.08 97.41 10.22Q97.23 10.36 97.09 10.59Q96.95 10.82 96.95 11.09L96.95 11.09Q96.95 11.76 97.21 12.03Q97.47 12.29 97.99 12.29L97.99 12.29Q98.91 12.29 99.68 11.82ZM105.42 12.63L102.40 12.63L102.40 12.33Q103.15 12.33 103.28 12.05L103.28 12.05L103.28 7.32Q102.41 7.25 102.40 7.25L102.40 7.25L102.40 6.93Q102.66 6.93 103.44 6.63Q104.22 6.33 104.54 6.33L104.54 6.33L104.54 6.97Q105.29 6.33 106.20 6.33L106.20 6.33Q107.51 6.33 108.09 6.81Q108.67 7.29 108.67 8.32L108.67 8.32L108.67 12.05Q108.79 12.33 109.55 12.33L109.55 12.33L109.55 12.63L106.53 12.63L106.53 12.33Q107.28 12.33 107.41 12.05L107.41 12.05L107.41 8.22Q107.41 6.80 106.12 6.80L106.12 6.80Q105.24 6.80 104.54 7.42L104.54 7.42L104.54 12.05Q104.66 12.33 105.42 12.33L105.42 12.33L105.42 12.63ZM113.25 12.63L110.22 12.63L110.22 12.33Q110.98 12.33 111.10 12.05L111.10 12.05L111.10 7.32Q110.24 7.25 110.22 7.25L110.22 7.25L110.22 6.93Q110.49 6.93 111.27 6.63Q112.04 6.33 112.36 6.33L112.36 6.33L112.36 12.05Q112.49 12.33 113.25 12.33L113.25 12.33L113.25 12.63ZM111.69 5.43L111.69 5.43Q111.38 5.43 111.15 5.20Q110.92 4.97 110.92 4.61L110.92 4.61Q110.92 4.28 111.13 4.05Q111.33 3.81 111.65 3.81L111.65 3.81Q111.96 3.81 112.20 4.05Q112.43 4.28 112.43 4.65L112.43 4.65Q112.43 4.97 112.22 5.20Q112.01 5.43 111.69 5.43ZM115.43 9.16L115.43 9.16Q115.43 10.75 116.04 11.55Q116.65 12.35 117.60 12.35L117.60 12.35Q118.36 12.35 118.82 11.67Q119.28 10.99 119.28 9.93L119.28 9.93Q119.28 6.76 117.08 6.76L117.08 6.76Q116.34 6.76 115.89 7.47Q115.43 8.18 115.43 9.16ZM117.42 12.77L117.42 12.77Q115.85 12.77 114.97 11.85Q114.09 10.93 114.09 9.44L114.09 9.44Q114.09 8.08 114.88 7.20Q115.68 6.33 117.32 6.33L117.32 6.33Q118.97 6.33 119.80 7.20Q120.62 8.08 120.62 9.60L120.62 9.60Q120.62 10.96 119.83 11.87Q119.04 12.77 117.42 12.77ZM124.63 12.63L121.60 12.63L121.60 12.33Q122.36 12.33 122.49 12.05L122.49 12.05L122.49 7.32Q121.62 7.25 121.60 7.25L121.60 7.25L121.60 6.93Q121.87 6.93 122.65 6.63Q123.42 6.33 123.75 6.33L123.75 6.33L123.75 6.97Q124.50 6.33 125.41 6.33L125.41 6.33Q126.71 6.33 127.30 6.81Q127.88 7.29 127.88 8.32L127.88 8.32L127.88 12.05Q128.00 12.33 128.76 12.33L128.76 12.33L128.76 12.63L125.73 12.63L125.73 12.33Q126.49 12.33 126.62 12.05L126.62 12.05L126.62 8.22Q126.62 6.80 125.33 6.80L125.33 6.80Q124.45 6.80 123.75 7.42L123.75 7.42L123.75 12.05Q123.87 12.33 124.63 12.33L124.63 12.33L124.63 12.63Z"></path></g><defs data-v-fde0c5aa=""><!----></defs><g data-v-fde0c5aa="" id="c4b7a879-e079-4131-805d-4fbb824b554e" stroke="none" fill="#ffffff" transform="matrix(1.4866069914937545,0,0,1.4866069914937545,126.21428813609992,97.59900751227352)"><path d="M12.289 5.343v19.9L1 13.954V5.343h11.289m1-1H0v10.026l13.289 13.289V4.343zM31 5.343v8.612L19.711 25.243v-19.9H31m1-1H18.711v23.315L32 14.369V4.343z"></path></g><defs data-v-fde0c5aa=""><!----></defs><g data-v-fde0c5aa="" id="d1d0471a-ea16-4be0-b79b-00a4622e39a9" fill="#ffffff" transform="matrix(0.5231668882363022,0,0,0.5231668882363022,52.505231669252666,188.96561230063958)"><path d="M4.93 7.81L8.81 2.21L7.53 2.21L4.40 6.72L1.26 2.21L-0.01 2.21L3.88 7.81L3.88 11.48L4.93 11.48ZM20.55 2.10C17.74 2.10 15.85 4.21 15.85 6.85C15.85 9.48 17.74 11.59 20.55 11.59C23.37 11.59 25.26 9.48 25.26 6.85C25.26 4.21 23.37 2.10 20.55 2.10ZM20.55 10.57C18.30 10.57 16.90 8.93 16.90 6.85C16.90 4.76 18.30 3.12 20.55 3.12C22.81 3.12 24.21 4.76 24.21 6.85C24.21 8.93 22.81 10.57 20.55 10.57ZM40.66 2.21L40.66 7.52C40.66 9.67 39.23 10.57 37.76 10.57C36.29 10.57 34.87 9.67 34.87 7.52L34.87 2.21L33.82 2.21L33.82 7.49C33.82 9.95 35.45 11.59 37.76 11.59C40.08 11.59 41.71 9.94 41.71 7.49L41.71 2.21ZM51.91 7.92L55.13 7.92L57.37 11.48L58.62 11.48L56.18 7.74C57.22 7.50 58.42 6.90 58.42 5.11C58.42 3.35 57.20 2.21 55.30 2.21L50.86 2.21L50.86 11.48L51.91 11.48ZM51.91 3.21L55.17 3.21C56.49 3.21 57.37 3.93 57.37 5.11C57.37 6.55 56.11 6.93 55.12 6.93L51.91 6.93ZM82.78 3.70L85.29 11.48L86.48 11.48L89.36 2.21L88.26 2.21L85.88 10.00L83.38 2.21L82.18 2.21L79.69 10.00L77.31 2.21L76.20 2.21L79.09 11.48L80.28 11.48ZM101.64 2.10C98.83 2.10 96.94 4.21 96.94 6.85C96.94 9.48 98.83 11.59 101.64 11.59C104.45 11.59 106.34 9.48 106.34 6.85C106.34 4.21 104.45 2.10 101.64 2.10ZM101.64 10.57C99.39 10.57 97.99 8.93 97.99 6.85C97.99 4.76 99.39 3.12 101.64 3.12C103.89 3.12 105.29 4.76 105.29 6.85C105.29 8.93 103.89 10.57 101.64 10.57ZM116.07 7.92L119.29 7.92L121.53 11.48L122.78 11.48L120.34 7.74C121.38 7.50 122.58 6.90 122.58 5.11C122.58 3.35 121.37 2.21 119.46 2.21L115.02 2.21L115.02 11.48L116.07 11.48ZM116.07 3.21L119.34 3.21C120.65 3.21 121.53 3.93 121.53 5.11C121.53 6.55 120.27 6.93 119.28 6.93L116.07 6.93ZM135.30 2.21L131.39 2.21L131.39 11.48L135.30 11.48C137.51 11.48 139.55 9.74 139.55 6.85C139.55 3.95 137.51 2.21 135.30 2.21ZM135.25 10.49L132.44 10.49L132.44 3.21L135.25 3.21C137.23 3.21 138.50 4.86 138.50 6.85C138.50 8.83 137.23 10.49 135.25 10.49ZM148.86 4.65C148.86 4.03 149.23 3.08 151.33 3.08C153.02 3.08 153.80 3.82 153.92 4.75L154.99 4.75C154.91 3.36 153.79 2.10 151.33 2.10C149.00 2.10 147.84 3.15 147.84 4.66C147.84 7.84 154.18 6.69 154.18 8.96C154.18 10.05 153.20 10.60 151.63 10.60C150.02 10.60 148.72 10.05 148.65 8.71L147.56 8.71C147.70 10.37 148.82 11.59 151.56 11.59C153.85 11.59 155.23 10.64 155.23 8.92C155.23 5.68 148.86 6.80 148.86 4.65ZM162.88 13.34L163.83 13.34L165.06 10.36L163.69 10.36ZM188.03 2.10C185.22 2.10 183.33 4.21 183.33 6.85C183.33 9.48 185.22 11.59 188.03 11.59C190.85 11.59 192.74 9.48 192.74 6.85C192.74 4.21 190.85 2.10 188.03 2.10ZM188.03 10.57C185.78 10.57 184.38 8.93 184.38 6.85C184.38 4.76 185.78 3.12 188.03 3.12C190.29 3.12 191.69 4.76 191.69 6.85C191.69 8.93 190.29 10.57 188.03 10.57ZM208.14 2.21L208.14 7.52C208.14 9.67 206.71 10.57 205.24 10.57C203.77 10.57 202.36 9.67 202.36 7.52L202.36 2.21L201.31 2.21L201.31 7.49C201.31 9.95 202.93 11.59 205.24 11.59C207.56 11.59 209.19 9.94 209.19 7.49L209.19 2.21ZM219.39 7.92L222.61 7.92L224.85 11.48L226.10 11.48L223.66 7.74C224.70 7.50 225.90 6.90 225.90 5.11C225.90 3.35 224.69 2.21 222.78 2.21L218.34 2.21L218.34 11.48L219.39 11.48ZM219.39 3.21L222.66 3.21C223.97 3.21 224.85 3.93 224.85 5.11C224.85 6.55 223.59 6.93 222.60 6.93L219.39 6.93ZM248.67 10.57C246.41 10.57 245.15 8.93 245.15 6.85C245.15 4.76 246.41 3.12 248.67 3.12C250.19 3.12 251.20 3.85 251.68 4.98L252.78 4.98C252.20 3.29 250.68 2.10 248.58 2.10C245.80 2.10 244.10 4.21 244.10 6.85C244.10 9.48 245.80 11.59 248.58 11.59C250.68 11.59 252.20 10.40 252.78 8.71L251.68 8.71C251.20 9.84 250.19 10.57 248.67 10.57ZM265.40 2.10C262.58 2.10 260.69 4.21 260.69 6.85C260.69 9.48 262.58 11.59 265.40 11.59C268.21 11.59 270.10 9.48 270.10 6.85C270.10 4.21 268.21 2.10 265.40 2.10ZM265.40 10.57C263.14 10.57 261.74 8.93 261.74 6.85C261.74 4.76 263.14 3.12 265.40 3.12C267.65 3.12 269.05 4.76 269.05 6.85C269.05 8.93 267.65 10.57 265.40 10.57ZM286.58 2.21L283.32 6.61L280.00 2.21L278.78 2.21L278.78 11.48L279.83 11.48L279.83 3.81L283.32 8.22L286.75 3.81L286.75 11.48L287.80 11.48L287.80 2.21ZM304.86 2.21L301.60 6.61L298.28 2.21L297.07 2.21L297.07 11.48L298.12 11.48L298.12 3.81L301.60 8.22L305.03 3.81L305.03 11.48L306.08 11.48L306.08 2.21ZM319.51 2.21L318.19 2.21L314.26 11.48L315.42 11.48L316.55 8.79L321.15 8.79L322.28 11.48L323.44 11.48ZM316.96 7.83L318.85 3.30L320.74 7.83ZM338.56 2.21L338.56 10.01L332.84 2.21L331.62 2.21L331.62 11.48L332.67 11.48L332.67 3.65L338.39 11.48L339.61 11.48L339.61 2.21ZM352.79 2.21L348.88 2.21L348.88 11.48L352.79 11.48C355.00 11.48 357.04 9.74 357.04 6.85C357.04 3.95 355.00 2.21 352.79 2.21ZM352.74 10.49L349.93 10.49L349.93 3.21L352.74 3.21C354.72 3.21 355.99 4.86 355.99 6.85C355.99 8.83 354.72 10.49 352.74 10.49ZM366.35 4.65C366.35 4.03 366.72 3.08 368.82 3.08C370.51 3.08 371.29 3.82 371.41 4.75L372.48 4.75C372.40 3.36 371.28 2.10 368.82 2.10C366.49 2.10 365.33 3.15 365.33 4.66C365.33 7.84 371.67 6.69 371.67 8.96C371.67 10.05 370.69 10.60 369.12 10.60C367.51 10.60 366.21 10.05 366.14 8.71L365.05 8.71C365.19 10.37 366.31 11.59 369.05 11.59C371.34 11.59 372.72 10.64 372.72 8.92C372.72 5.68 366.35 6.80 366.35 4.65Z"></path></g></svg>