<svg data-v-423bf9ae="" xmlns="http://www.w3.org/2000/svg" viewBox="0 0 668.1320362479089 60" class="font"><!----><!----><!----><g data-v-423bf9ae="" id="7ef21c75-9788-4e77-8fbd-080e3dc5d0bd" fill="black" transform="matrix(5.212858280353729,0,0,5.212858280353729,-3.0755838369942126,-19.860990226702725)"><path d="M4.84 4.77L4.84 4.77Q3.64 4.77 2.84 5.77Q2.04 6.76 2.04 8.34L2.04 8.34Q2.04 10.19 2.88 11.24Q3.72 12.29 4.90 12.29L4.90 12.29Q5.60 12.29 6.29 11.81Q6.97 11.33 7.17 10.78L7.17 10.78L7.50 10.95Q7.18 11.72 6.49 12.24Q5.80 12.77 4.62 12.77L4.62 12.77Q2.76 12.77 1.67 11.56Q0.59 10.35 0.59 8.65L0.59 8.65Q0.59 6.69 1.84 5.50Q3.09 4.30 4.83 4.30L4.83 4.30Q5.24 4.30 5.77 4.51Q6.30 4.72 6.38 4.72L6.38 4.72Q6.55 4.72 6.55 4.44L6.55 4.44L6.87 4.44L7.01 6.22L6.71 6.22Q6.61 5.59 6.15 5.18Q5.70 4.77 4.84 4.77ZM9.76 9.16L9.76 9.16Q9.76 10.75 10.37 11.55Q10.98 12.35 11.93 12.35L11.93 12.35Q12.68 12.35 13.15 11.67Q13.61 10.99 13.61 9.93L13.61 9.93Q13.61 6.76 11.41 6.76L11.41 6.76Q10.67 6.76 10.21 7.47Q9.76 8.18 9.76 9.16ZM11.75 12.77L11.75 12.77Q10.18 12.77 9.30 11.85Q8.41 10.93 8.41 9.44L8.41 9.44Q8.41 8.08 9.21 7.20Q10.01 6.33 11.65 6.33L11.65 6.33Q13.30 6.33 14.13 7.20Q14.95 8.08 14.95 9.60L14.95 9.60Q14.95 10.96 14.16 11.87Q13.37 12.77 11.75 12.77ZM18.96 12.63L15.93 12.63L15.93 12.33Q16.69 12.33 16.81 12.05L16.81 12.05L16.81 7.32Q15.95 7.25 15.93 7.25L15.93 7.25L15.93 6.93Q16.20 6.93 16.98 6.63Q17.75 6.33 18.07 6.33L18.07 6.33L18.07 6.96Q18.82 6.33 19.63 6.33L19.63 6.33Q21.31 6.33 21.78 7.14L21.78 7.14Q22.57 6.33 23.53 6.33L23.53 6.33Q25.89 6.33 25.89 7.92L25.89 7.92L25.89 12.05Q26.01 12.33 26.77 12.33L26.77 12.33L26.77 12.63L23.74 12.63L23.74 12.33Q24.50 12.33 24.63 12.05L24.63 12.05L24.63 8.44Q24.63 7.53 24.36 7.17Q24.09 6.80 23.45 6.80L23.45 6.80Q22.62 6.80 21.92 7.48L21.92 7.48Q21.98 7.66 21.98 7.92L21.98 7.92L21.98 12.05Q22.11 12.33 22.86 12.33L22.86 12.33L22.86 12.63L19.84 12.63L19.84 12.33Q20.59 12.33 20.72 12.05L20.72 12.05L20.72 8.44Q20.72 7.53 20.45 7.17Q20.19 6.80 19.54 6.80L19.54 6.80Q18.75 6.80 18.07 7.42L18.07 7.42L18.07 12.05Q18.20 12.33 18.96 12.33L18.96 12.33L18.96 12.63ZM30.48 12.63L27.45 12.63L27.45 12.33Q28.21 12.33 28.34 12.05L28.34 12.05L28.34 7.32Q27.47 7.25 27.45 7.25L27.45 7.25L27.45 6.93Q27.72 6.93 28.50 6.63Q29.27 6.33 29.60 6.33L29.60 6.33L29.60 6.96Q30.34 6.33 31.15 6.33L31.15 6.33Q32.83 6.33 33.31 7.14L33.31 7.14Q34.09 6.33 35.06 6.33L35.06 6.33Q37.41 6.33 37.41 7.92L37.41 7.92L37.41 12.05Q37.53 12.33 38.29 12.33L38.29 12.33L38.29 12.63L35.27 12.63L35.27 12.33Q36.02 12.33 36.15 12.05L36.15 12.05L36.15 8.44Q36.15 7.53 35.88 7.17Q35.62 6.80 34.97 6.80L34.97 6.80Q34.15 6.80 33.45 7.48L33.45 7.48Q33.50 7.66 33.50 7.92L33.50 7.92L33.50 12.05Q33.63 12.33 34.38 12.33L34.38 12.33L34.38 12.63L31.36 12.63L31.36 12.33Q32.12 12.33 32.24 12.05L32.24 12.05L32.24 8.44Q32.24 7.53 31.98 7.17Q31.71 6.80 31.07 6.80L31.07 6.80Q30.27 6.80 29.60 7.42L29.60 7.42L29.60 12.05Q29.72 12.33 30.48 12.33L30.48 12.33L30.48 12.63ZM40.11 7.50L40.11 7.50Q40.31 7.50 40.45 7.64Q40.60 7.78 40.60 8.08L40.60 8.08Q40.60 8.32 40.41 8.44Q40.22 8.57 39.97 8.57L39.97 8.57Q39.70 8.57 39.54 8.38Q39.37 8.19 39.37 7.87L39.37 7.87Q39.37 7.14 39.97 6.73Q40.57 6.33 41.68 6.33L41.68 6.33Q42.98 6.33 43.59 6.97Q44.20 7.62 44.20 8.68L44.20 8.68L44.20 11.45Q44.20 11.90 44.34 12.11Q44.49 12.32 44.70 12.32L44.70 12.32Q44.88 12.32 45.03 12.22Q45.18 12.12 45.18 11.98L45.18 11.98L45.43 11.98Q45.43 12.38 45.14 12.56Q44.86 12.74 44.14 12.74L44.14 12.74Q43.44 12.74 43.15 12.17L43.15 12.17Q42.32 12.77 41.09 12.77L41.09 12.77Q38.99 12.77 38.99 11.06L38.99 11.06Q38.99 10.70 39.25 10.40Q39.51 10.11 40.00 9.91Q40.49 9.72 40.92 9.60Q41.36 9.48 42.01 9.33Q42.66 9.18 42.94 9.10L42.94 9.10Q42.94 7.92 42.63 7.38Q42.32 6.83 41.54 6.83L41.54 6.83Q40.28 6.83 40.11 7.50ZM43.02 11.82L43.02 11.82Q42.94 11.51 42.94 11.06L42.94 11.06L42.94 9.41Q42.78 9.46 42.41 9.56Q42.04 9.66 41.81 9.73Q41.58 9.80 41.26 9.94Q40.94 10.08 40.75 10.22Q40.57 10.36 40.43 10.59Q40.29 10.82 40.29 11.09L40.29 11.09Q40.29 11.76 40.55 12.03Q40.81 12.29 41.33 12.29L41.33 12.29Q42.25 12.29 43.02 11.82ZM48.76 12.63L45.74 12.63L45.74 12.33Q46.49 12.33 46.62 12.05L46.62 12.05L46.62 7.32Q45.75 7.25 45.74 7.25L45.74 7.25L45.74 6.93Q46.00 6.93 46.78 6.63Q47.56 6.33 47.88 6.33L47.88 6.33L47.88 6.97Q48.64 6.33 49.55 6.33L49.55 6.33Q50.85 6.33 51.43 6.81Q52.01 7.29 52.01 8.32L52.01 8.32L52.01 12.05Q52.14 12.33 52.89 12.33L52.89 12.33L52.89 12.63L49.87 12.63L49.87 12.33Q50.62 12.33 50.75 12.05L50.75 12.05L50.75 8.22Q50.75 6.80 49.46 6.80L49.46 6.80Q48.58 6.80 47.88 7.42L47.88 7.42L47.88 12.05Q48.01 12.33 48.76 12.33L48.76 12.33L48.76 12.63ZM58.21 6.61L58.21 6.61L58.21 4.80Q58.21 4.80 57.33 4.73L57.33 4.73L57.33 4.41Q57.60 4.41 58.37 4.11Q59.15 3.81 59.47 3.81L59.47 3.81L59.47 11.77L60.35 11.84L60.35 12.17Q60.09 12.17 59.31 12.47Q58.53 12.77 58.21 12.77L58.21 12.77L58.21 12.31Q57.54 12.77 56.53 12.77L56.53 12.77Q56.07 12.77 55.62 12.61Q55.16 12.45 54.71 12.10Q54.25 11.76 53.96 11.09Q53.68 10.42 53.68 9.52L53.68 9.52Q53.68 7.95 54.55 7.11Q55.43 6.27 56.84 6.27L56.84 6.27Q57.64 6.27 58.21 6.61ZM58.21 11.84L58.21 7.04Q57.71 6.75 56.92 6.75L56.92 6.75Q56.15 6.75 55.58 7.49Q55.01 8.23 55.01 9.52L55.01 9.52Q55.01 10.37 55.50 11.33Q56 12.29 56.67 12.29L56.67 12.29Q57.60 12.29 58.21 11.84L58.21 11.84ZM65.49 4.77L65.49 4.77Q64.29 4.77 63.49 5.77Q62.69 6.76 62.69 8.34L62.69 8.34Q62.69 10.19 63.53 11.24Q64.37 12.29 65.55 12.29L65.55 12.29Q66.25 12.29 66.93 11.81Q67.62 11.33 67.82 10.78L67.82 10.78L68.15 10.95Q67.83 11.72 67.14 12.24Q66.44 12.77 65.27 12.77L65.27 12.77Q63.41 12.77 62.32 11.56Q61.24 10.35 61.24 8.65L61.24 8.65Q61.24 6.69 62.49 5.50Q63.74 4.30 65.48 4.30L65.48 4.30Q65.88 4.30 66.42 4.51Q66.95 4.72 67.03 4.72L67.03 4.72Q67.20 4.72 67.20 4.44L67.20 4.44L67.52 4.44L67.66 6.22L67.35 6.22Q67.26 5.59 66.80 5.18Q66.35 4.77 65.49 4.77ZM70.41 9.16L70.41 9.16Q70.41 10.75 71.02 11.55Q71.62 12.35 72.58 12.35L72.58 12.35Q73.33 12.35 73.79 11.67Q74.26 10.99 74.26 9.93L74.26 9.93Q74.26 6.76 72.06 6.76L72.06 6.76Q71.32 6.76 70.86 7.47Q70.41 8.18 70.41 9.16ZM72.39 12.77L72.39 12.77Q70.83 12.77 69.94 11.85Q69.06 10.93 69.06 9.44L69.06 9.44Q69.06 8.08 69.86 7.20Q70.66 6.33 72.30 6.33L72.30 6.33Q73.95 6.33 74.77 7.20Q75.60 8.08 75.60 9.60L75.60 9.60Q75.60 10.96 74.81 11.87Q74.02 12.77 72.39 12.77ZM79.60 12.63L76.58 12.63L76.58 12.33Q77.34 12.33 77.46 12.05L77.46 12.05L77.46 7.32Q76.59 7.25 76.58 7.25L76.58 7.25L76.58 6.93Q76.85 6.93 77.62 6.63Q78.40 6.33 78.72 6.33L78.72 6.33L78.72 6.96Q79.46 6.33 80.28 6.33L80.28 6.33Q81.96 6.33 82.43 7.14L82.43 7.14Q83.22 6.33 84.18 6.33L84.18 6.33Q86.53 6.33 86.53 7.92L86.53 7.92L86.53 12.05Q86.66 12.33 87.42 12.33L87.42 12.33L87.42 12.63L84.39 12.63L84.39 12.33Q85.15 12.33 85.27 12.05L85.27 12.05L85.27 8.44Q85.27 7.53 85.01 7.17Q84.74 6.80 84.10 6.80L84.10 6.80Q83.27 6.80 82.57 7.48L82.57 7.48Q82.63 7.66 82.63 7.92L82.63 7.92L82.63 12.05Q82.75 12.33 83.51 12.33L83.51 12.33L83.51 12.63L80.49 12.63L80.49 12.33Q81.24 12.33 81.37 12.05L81.37 12.05L81.37 8.44Q81.37 7.53 81.10 7.17Q80.84 6.80 80.19 6.80L80.19 6.80Q79.39 6.80 78.72 7.42L78.72 7.42L78.72 12.05Q78.85 12.33 79.60 12.33L79.60 12.33L79.60 12.63ZM91 15.32L87.98 15.32L87.98 15.02Q88.73 15.02 88.86 14.74L88.86 14.74L88.86 7.32Q88.86 7.32 87.98 7.25L87.98 7.25L87.98 6.93Q88.24 6.93 89.02 6.63Q89.80 6.33 90.12 6.33L90.12 6.33L90.12 6.79Q90.79 6.33 91.80 6.33L91.80 6.33Q92.26 6.33 92.72 6.49Q93.17 6.65 93.63 6.99Q94.08 7.34 94.37 8.01Q94.65 8.68 94.65 9.58L94.65 9.58Q94.65 11.13 93.79 11.95Q92.92 12.77 91.49 12.77L91.49 12.77Q90.68 12.77 90.12 12.46L90.12 12.46L90.12 14.74Q90.24 15.02 91 15.02L91 15.02L91 15.32ZM90.12 7.25L90.12 12.01Q90.65 12.29 91.41 12.29L91.41 12.29Q92.18 12.29 92.75 11.58Q93.32 10.86 93.32 9.58L93.32 9.58Q93.32 8.72 92.83 7.76Q92.33 6.80 91.66 6.80L91.66 6.80Q90.69 6.80 90.12 7.25L90.12 7.25ZM96.77 7.50L96.77 7.50Q96.96 7.50 97.11 7.64Q97.26 7.78 97.26 8.08L97.26 8.08Q97.26 8.32 97.07 8.44Q96.88 8.57 96.63 8.57L96.63 8.57Q96.36 8.57 96.19 8.38Q96.03 8.19 96.03 7.87L96.03 7.87Q96.03 7.14 96.63 6.73Q97.23 6.33 98.34 6.33L98.34 6.33Q99.64 6.33 100.25 6.97Q100.86 7.62 100.86 8.68L100.86 8.68L100.86 11.45Q100.86 11.90 101.00 12.11Q101.15 12.32 101.36 12.32L101.36 12.32Q101.54 12.32 101.69 12.22Q101.84 12.12 101.84 11.98L101.84 11.98L102.09 11.98Q102.09 12.38 101.80 12.56Q101.51 12.74 100.80 12.74L100.80 12.74Q100.10 12.74 99.81 12.17L99.81 12.17Q98.98 12.77 97.75 12.77L97.75 12.77Q95.65 12.77 95.65 11.06L95.65 11.06Q95.65 10.70 95.91 10.40Q96.17 10.11 96.66 9.91Q97.15 9.72 97.58 9.60Q98.01 9.48 98.67 9.33Q99.32 9.18 99.60 9.10L99.60 9.10Q99.60 7.92 99.29 7.38Q98.98 6.83 98.20 6.83L98.20 6.83Q96.94 6.83 96.77 7.50ZM99.68 11.82L99.68 11.82Q99.60 11.51 99.60 11.06L99.60 11.06L99.60 9.41Q99.44 9.46 99.07 9.56Q98.70 9.66 98.47 9.73Q98.24 9.80 97.92 9.94Q97.59 10.08 97.41 10.22Q97.23 10.36 97.09 10.59Q96.95 10.82 96.95 11.09L96.95 11.09Q96.95 11.76 97.21 12.03Q97.47 12.29 97.99 12.29L97.99 12.29Q98.91 12.29 99.68 11.82ZM105.42 12.63L102.40 12.63L102.40 12.33Q103.15 12.33 103.28 12.05L103.28 12.05L103.28 7.32Q102.41 7.25 102.40 7.25L102.40 7.25L102.40 6.93Q102.66 6.93 103.44 6.63Q104.22 6.33 104.54 6.33L104.54 6.33L104.54 6.97Q105.29 6.33 106.20 6.33L106.20 6.33Q107.51 6.33 108.09 6.81Q108.67 7.29 108.67 8.32L108.67 8.32L108.67 12.05Q108.79 12.33 109.55 12.33L109.55 12.33L109.55 12.63L106.53 12.63L106.53 12.33Q107.28 12.33 107.41 12.05L107.41 12.05L107.41 8.22Q107.41 6.80 106.12 6.80L106.12 6.80Q105.24 6.80 104.54 7.42L104.54 7.42L104.54 12.05Q104.66 12.33 105.42 12.33L105.42 12.33L105.42 12.63ZM113.25 12.63L110.22 12.63L110.22 12.33Q110.98 12.33 111.10 12.05L111.10 12.05L111.10 7.32Q110.24 7.25 110.22 7.25L110.22 7.25L110.22 6.93Q110.49 6.93 111.27 6.63Q112.04 6.33 112.36 6.33L112.36 6.33L112.36 12.05Q112.49 12.33 113.25 12.33L113.25 12.33L113.25 12.63ZM111.69 5.43L111.69 5.43Q111.38 5.43 111.15 5.20Q110.92 4.97 110.92 4.61L110.92 4.61Q110.92 4.28 111.13 4.05Q111.33 3.81 111.65 3.81L111.65 3.81Q111.96 3.81 112.20 4.05Q112.43 4.28 112.43 4.65L112.43 4.65Q112.43 4.97 112.22 5.20Q112.01 5.43 111.69 5.43ZM115.43 9.16L115.43 9.16Q115.43 10.75 116.04 11.55Q116.65 12.35 117.60 12.35L117.60 12.35Q118.36 12.35 118.82 11.67Q119.28 10.99 119.28 9.93L119.28 9.93Q119.28 6.76 117.08 6.76L117.08 6.76Q116.34 6.76 115.89 7.47Q115.43 8.18 115.43 9.16ZM117.42 12.77L117.42 12.77Q115.85 12.77 114.97 11.85Q114.09 10.93 114.09 9.44L114.09 9.44Q114.09 8.08 114.88 7.20Q115.68 6.33 117.32 6.33L117.32 6.33Q118.97 6.33 119.80 7.20Q120.62 8.08 120.62 9.60L120.62 9.60Q120.62 10.96 119.83 11.87Q119.04 12.77 117.42 12.77ZM124.63 12.63L121.60 12.63L121.60 12.33Q122.36 12.33 122.49 12.05L122.49 12.05L122.49 7.32Q121.62 7.25 121.60 7.25L121.60 7.25L121.60 6.93Q121.87 6.93 122.65 6.63Q123.42 6.33 123.75 6.33L123.75 6.33L123.75 6.97Q124.50 6.33 125.41 6.33L125.41 6.33Q126.71 6.33 127.30 6.81Q127.88 7.29 127.88 8.32L127.88 8.32L127.88 12.05Q128.00 12.33 128.76 12.33L128.76 12.33L128.76 12.63L125.73 12.63L125.73 12.33Q126.49 12.33 126.62 12.05L126.62 12.05L126.62 8.22Q126.62 6.80 125.33 6.80L125.33 6.80Q124.45 6.80 123.75 7.42L123.75 7.42L123.75 12.05Q123.87 12.33 124.63 12.33L124.63 12.33L124.63 12.63Z"></path></g><!----><!----></svg>